REM DIRINDEX 1\3,1\2\4,1\2\5,1\2\6
REM DIRNAME folder01,folder02,folder03,folder04,folder05,folder06
TITLE ""
FILE "037.mp3" MP3
  TRACK 01 AUDIO
    TITLE "4:cjc137_1515"
    INDEX 01 00:00:00
  TRACK 02 AUDIO
    TITLE "0:"
    INDEX 01 00:01:13
  TRACK 03 AUDIO
    TITLE "6:cjc137_1516"
    INDEX 01 00:01:26
  TRACK 04 AUDIO
    TITLE "0:"
    INDEX 01 00:02:51
  TRACK 05 AUDIO
    TITLE "5:cjc137_1517"
    INDEX 01 00:02:59
  TRACK 06 AUDIO
    TITLE "0:"
    INDEX 01 00:03:74
  TRACK 07 AUDIO
    TITLE "4:cjc137_1518"
    INDEX 01 00:05:10
  TRACK 08 AUDIO
    TITLE "0:"
    INDEX 01 00:06:16
  TRACK 09 AUDIO
    TITLE "6:cjc137_1519"
    INDEX 01 00:06:26
  TRACK 10 AUDIO
    TITLE "0:"
    INDEX 01 00:07:33
  TRACK 11 AUDIO
    TITLE "5:cjc137_1520"
    INDEX 01 00:07:47
  TRACK 12 AUDIO
    TITLE "0:"
    INDEX 01 00:08:54
  TRACK 13 AUDIO
    TITLE "4:cjc137_1521"
    INDEX 01 00:09:61
  TRACK 14 AUDIO
    TITLE "0:"
    INDEX 01 00:10:68
  TRACK 15 AUDIO
    TITLE "6:cjc137_1522"
    INDEX 01 00:11:01
  TRACK 16 AUDIO
    TITLE "0:"
    INDEX 01 00:12:42
  TRACK 17 AUDIO
    TITLE "5:cjc137_1523"
    INDEX 01 00:12:50
  TRACK 18 AUDIO
    TITLE "0:"
    INDEX 01 00:13:57
  TRACK 19 AUDIO
    TITLE "4:cjc137_1524"
    INDEX 01 00:14:66
  TRACK 20 AUDIO
    TITLE "0:"
    INDEX 01 00:15:62
  TRACK 21 AUDIO
    TITLE "6:cjc137_1525"
    INDEX 01 00:16:00
  TRACK 22 AUDIO
    TITLE "0:"
    INDEX 01 00:16:71
  TRACK 23 AUDIO
    TITLE "5:cjc137_1526"
    INDEX 01 00:17:04
  TRACK 24 AUDIO
    TITLE "0:"
    INDEX 01 00:18:01
  TRACK 25 AUDIO
    TITLE "4:cjc137_1527"
    INDEX 01 00:19:13
  TRACK 26 AUDIO
    TITLE "0:"
    INDEX 01 00:20:32
  TRACK 27 AUDIO
    TITLE "6:cjc137_1528"
    INDEX 01 00:20:39
  TRACK 28 AUDIO
    TITLE "0:"
    INDEX 01 00:22:01
  TRACK 29 AUDIO
    TITLE "5:cjc137_1529"
    INDEX 01 00:22:09
  TRACK 30 AUDIO
    TITLE "0:"
    INDEX 01 00:23:28
  TRACK 31 AUDIO
    TITLE "4:cjc137_1530"
    INDEX 01 00:24:35
  TRACK 32 AUDIO
    TITLE "0:"
    INDEX 01 00:25:37
  TRACK 33 AUDIO
    TITLE "6:cjc137_1531"
    INDEX 01 00:25:46
  TRACK 34 AUDIO
    TITLE "0:"
    INDEX 01 00:27:28
  TRACK 35 AUDIO
    TITLE "5:cjc137_1532"
    INDEX 01 00:27:36
  TRACK 36 AUDIO
    TITLE "0:"
    INDEX 01 00:28:39
  TRACK 37 AUDIO
    TITLE "4:cjc137_1533"
    INDEX 01 00:29:48
  TRACK 38 AUDIO
    TITLE "0:"
    INDEX 01 00:30:46
  TRACK 39 AUDIO
    TITLE "6:cjc137_1534"
    INDEX 01 00:30:55
  TRACK 40 AUDIO
    TITLE "0:"
    INDEX 01 00:31:41
  TRACK 41 AUDIO
    TITLE "5:cjc137_1535"
    INDEX 01 00:31:49
  TRACK 42 AUDIO
    TITLE "0:"
    INDEX 01 00:32:48
  TRACK 43 AUDIO
    TITLE "4:cjc137_1536"
    INDEX 01 00:33:56
  TRACK 44 AUDIO
    TITLE "0:"
    INDEX 01 00:34:73
  TRACK 45 AUDIO
    TITLE "6:cjc137_1537"
    INDEX 01 00:35:06
  TRACK 46 AUDIO
    TITLE "0:"
    INDEX 01 00:36:72
  TRACK 47 AUDIO
    TITLE "5:cjc137_1538"
    INDEX 01 00:37:05
  TRACK 48 AUDIO
    TITLE "0:"
    INDEX 01 00:38:20
  TRACK 49 AUDIO
    TITLE "4:cjc137_1539"
    INDEX 01 00:39:29
  TRACK 50 AUDIO
    TITLE "0:"
    INDEX 01 00:40:44
  TRACK 51 AUDIO
    TITLE "6:cjc137_1540"
    INDEX 01 00:40:50
  TRACK 52 AUDIO
    TITLE "0:"
    INDEX 01 00:41:71
  TRACK 53 AUDIO
    TITLE "5:cjc137_1541"
    INDEX 01 00:42:04
  TRACK 54 AUDIO
    TITLE "0:"
    INDEX 01 00:43:19
  TRACK 55 AUDIO
    TITLE "4:cjc137_1542"
    INDEX 01 00:44:26
  TRACK 56 AUDIO
    TITLE "0:"
    INDEX 01 00:45:47
  TRACK 57 AUDIO
    TITLE "6:cjc137_1543"
    INDEX 01 00:45:55
  TRACK 58 AUDIO
    TITLE "0:"
    INDEX 01 00:46:54
  TRACK 59 AUDIO
    TITLE "5:cjc137_1544"
    INDEX 01 00:46:62
  TRACK 60 AUDIO
    TITLE "0:"
    INDEX 01 00:48:08
  TRACK 61 AUDIO
    TITLE "4:cjc137_1545"
    INDEX 01 00:49:14
  TRACK 62 AUDIO
    TITLE "0:"
    INDEX 01 00:50:31
  TRACK 63 AUDIO
    TITLE "6:cjc137_1546"
    INDEX 01 00:50:41
  TRACK 64 AUDIO
    TITLE "0:"
    INDEX 01 00:51:50
  TRACK 65 AUDIO
    TITLE "5:cjc137_1547"
    INDEX 01 00:51:58
  TRACK 66 AUDIO
    TITLE "0:"
    INDEX 01 00:52:73
  TRACK 67 AUDIO
    TITLE "4:cjc137_1548"
    INDEX 01 00:54:09
  TRACK 68 AUDIO
    TITLE "0:"
    INDEX 01 00:55:20
  TRACK 69 AUDIO
    TITLE "6:cjc137_1549"
    INDEX 01 00:55:28
  TRACK 70 AUDIO
    TITLE "0:"
    INDEX 01 00:56:24
  TRACK 71 AUDIO
    TITLE "5:cjc137_1550"
    INDEX 01 00:56:29
  TRACK 72 AUDIO
    TITLE "0:"
    INDEX 01 00:57:39
  TRACK 73 AUDIO
    TITLE "4:cjc137_1551"
    INDEX 01 00:58:48
  TRACK 74 AUDIO
    TITLE "0:"
    INDEX 01 00:59:69
  TRACK 75 AUDIO
    TITLE "6:cjc137_1552"
    INDEX 01 01:00:04
  TRACK 76 AUDIO
    TITLE "0:"
    INDEX 01 01:01:15
  TRACK 77 AUDIO
    TITLE "5:cjc137_1553"
    INDEX 01 01:01:23
  TRACK 78 AUDIO
    TITLE "0:"
    INDEX 01 01:02:42
  TRACK 79 AUDIO
    TITLE "4:cjc137_1554"
    INDEX 01 01:03:55
  TRACK 80 AUDIO
    TITLE "0:"
    INDEX 01 01:04:50
  TRACK 81 AUDIO
    TITLE "6:cjc137_1555"
    INDEX 01 01:04:58
  TRACK 82 AUDIO
    TITLE "0:"
    INDEX 01 01:05:54
  TRACK 83 AUDIO
    TITLE "5:cjc137_1556"
    INDEX 01 01:05:62
  TRACK 84 AUDIO
    TITLE "0:"
    INDEX 01 01:06:59
